<svg width="48" height="48" viewBox="0 0 48 48" fill="none" xmlns="http://www.w3.org/2000/svg">
<rect width="48" height="48" fill="white"/>
<path d="M28.5 42C28.5 42.2831 28.3628 42.7045 27.7906 43.2456C27.2152 43.7898 26.3022 44.3489 25.0495 44.8499C22.5525 45.8487 19.0002 46.5 15 46.5C10.9998 46.5 7.44745 45.8487 4.95048 44.8499C3.69784 44.3489 2.78479 43.7898 2.20944 43.2456C1.63725 42.7045 1.5 42.2831 1.5 42C1.5 41.7169 1.63725 41.2955 2.20944 40.7544C2.78479 40.2102 3.69784 39.6511 4.95048 39.1501C7.44745 38.1513 10.9998 37.5 15 37.5C19.0002 37.5 22.5525 38.1513 25.0495 39.1501C26.3022 39.6511 27.2152 40.2102 27.7906 40.7544C28.3628 41.2955 28.5 41.7169 28.5 42Z" stroke="#152C5B" stroke-width="3"/>
<path d="M27.4895 13.8947C27.4895 15.0346 27.0989 16.8095 26.3563 19.0744C25.627 21.2983 24.6059 23.8565 23.4488 26.5052C21.1356 31.8004 18.3189 37.3678 16.3192 41.185C15.7871 42.2007 14.4023 42.2007 13.8703 41.185C11.8706 37.3678 9.05388 31.8004 6.74072 26.5052C5.58361 23.8565 4.56246 21.2983 3.83321 19.0744C3.09053 16.8095 2.7 15.0346 2.7 13.8947C2.7 7.04931 8.24931 1.5 15.0947 1.5C21.9402 1.5 27.4895 7.04931 27.4895 13.8947Z" fill="white" stroke="#152C5B" stroke-width="3"/>
<circle cx="15.0947" cy="13.8947" r="4.96241" fill="#294ADD"/>
</svg>
